<svg xmlns="http://www.w3.org/2000/svg" width="320" height="260" font-family="Segoe UI, Arial, sans-serif" font-size="11">
  <defs>
    <linearGradient id="panelBg" x1="0" y1="0" x2="0" y2="1">
      <stop offset="0%" stop-color="#3a3a3a"/>
      <stop offset="100%" stop-color="#2b2b2b"/>
    </linearGradient>
    <linearGradient id="btnBg" x1="0" y1="0" x2="0" y2="1">
      <stop offset="0%" stop-color="#505050"/>
      <stop offset="100%" stop-color="#3c3c3c"/>
    </linearGradient>
    <linearGradient id="genBg" x1="0" y1="0" x2="0" y2="1">
      <stop offset="0%" stop-color="#4a6fa5"/>
      <stop offset="100%" stop-color="#3a5a8a"/>
    </linearGradient>
    <linearGradient id="randBg" x1="0" y1="0" x2="0" y2="1">
      <stop offset="0%" stop-color="#6a5a8a"/>
      <stop offset="100%" stop-color="#554570"/>
    </linearGradient>
  </defs>
  <!-- Panel background -->
  <rect width="320" height="260" rx="4" fill="url(#panelBg)" stroke="#555" stroke-width="1"/>
  <!-- Title -->
  <text x="160" y="28" text-anchor="middle" fill="#e0e0e0" font-size="13" font-weight="bold" letter-spacing="1">WINDOWS ERROR FX</text>
  <line x1="16" y1="38" x2="304" y2="38" stroke="#555" stroke-width="0.5"/>
  <!-- Seed row -->
  <text x="20" y="62" fill="#b0b0b0" font-size="10" font-weight="bold">SEED</text>
  <rect x="56" y="48" width="72" height="20" rx="2" fill="#1e1e1e" stroke="#666" stroke-width="0.5"/>
  <text x="64" y="62" fill="#e0e0e0" font-size="11">1984</text>
  <!-- Chaos row -->
  <text x="20" y="92" fill="#b0b0b0" font-size="10" font-weight="bold">CHAOS</text>
  <rect x="62" y="78" width="52" height="20" rx="2" fill="#1e1e1e" stroke="#666" stroke-width="0.5"/>
  <text x="70" y="92" fill="#e0e0e0" font-size="11">100</text>
  <text x="120" y="92" fill="#777" font-size="9">(0 = off, 100 = normal, 500+ = insane)</text>
  <!-- Roto status -->
  <text x="20" y="118" fill="#8a8" font-size="10">Roto: 2 layers detected</text>
  <!-- Button row -->
  <rect x="20" y="130" width="150" height="28" rx="3" fill="url(#genBg)" stroke="#5a7ab5" stroke-width="0.5"/>
  <text x="95" y="149" text-anchor="middle" fill="#fff" font-size="12" font-weight="bold">GENERATE</text>
  <rect x="178" y="130" width="120" height="28" rx="3" fill="url(#randBg)" stroke="#7a6a9a" stroke-width="0.5"/>
  <text x="238" y="149" text-anchor="middle" fill="#fff" font-size="11" font-weight="bold">RANDOMIZE</text>
  <!-- Divider -->
  <line x1="16" y1="170" x2="304" y2="170" stroke="#555" stroke-width="0.5"/>
  <!-- Advanced toggle -->
  <rect x="20" y="180" width="280" height="24" rx="3" fill="url(#btnBg)" stroke="#666" stroke-width="0.5"/>
  <text x="160" y="196" text-anchor="middle" fill="#ccc" font-size="10">Show Advanced</text>
  <!-- Hint text -->
  <text x="160" y="230" text-anchor="middle" fill="#666" font-size="9" font-style="italic">Click Show Advanced for per-element tabs,</text>
  <text x="160" y="244" text-anchor="middle" fill="#666" font-size="9" font-style="italic">overlays, style, and roto controls</text>
</svg>
