<svg xmlns="http://www.w3.org/2000/svg" width="320" height="180" font-family="Segoe UI, Arial, sans-serif" font-size="11">
  <defs>
    <linearGradient id="panelBg" x1="0" y1="0" x2="0" y2="1">
      <stop offset="0%" stop-color="#3a3a3a"/>
      <stop offset="100%" stop-color="#2b2b2b"/>
    </linearGradient>
  </defs>
  <!-- Panel background -->
  <rect width="320" height="180" rx="4" fill="url(#panelBg)" stroke="#555" stroke-width="1"/>
  <!-- Title -->
  <text x="160" y="28" text-anchor="middle" fill="#e0e0e0" font-size="13" font-weight="bold" letter-spacing="1">WINDOWS ERROR FX</text>
  <line x1="16" y1="38" x2="304" y2="38" stroke="#555" stroke-width="0.5"/>
  <!-- Seed row -->
  <text x="20" y="62" fill="#b0b0b0" font-size="10" font-weight="bold">SEED</text>
  <rect x="56" y="48" width="72" height="20" rx="2" fill="#1e1e1e" stroke="#666" stroke-width="0.5"/>
  <text x="64" y="62" fill="#e0e0e0" font-size="11">1984</text>
  <!-- Chaos row -->
  <text x="20" y="92" fill="#b0b0b0" font-size="10" font-weight="bold">CHAOS</text>
  <rect x="62" y="78" width="52" height="20" rx="2" fill="#1e1e1e" stroke="#666" stroke-width="0.5"/>
  <text x="70" y="92" fill="#e0e0e0" font-size="11">100</text>
  <text x="120" y="92" fill="#777" font-size="9">(0 = off, 100 = normal, 500+ = insane)</text>
  <!-- Simulated Resolution row -->
  <text x="20" y="118" fill="#b0b0b0" font-size="10">Simulated Resolution:</text>
  <rect x="132" y="104" width="100" height="20" rx="2" fill="#1e1e1e" stroke="#666" stroke-width="0.5"/>
  <text x="140" y="118" fill="#e0e0e0" font-size="10">720p (1280x720)</text>
  <text x="220" y="118" fill="#777" font-size="9">&#x25BE;</text>
  <!-- Roto layer picker -->
  <text x="20" y="144" fill="#b0b0b0" font-size="10">Roto:</text>
  <rect x="52" y="130" width="160" height="20" rx="2" fill="#1e1e1e" stroke="#666" stroke-width="0.5"/>
  <text x="60" y="144" fill="#e0e0e0" font-size="10">Auto-detect</text>
  <text x="198" y="144" fill="#777" font-size="9">&#x25BE;</text>
  <text x="222" y="144" fill="#8a8" font-size="9">2 roto</text>
  <!-- Continuation hint -->
  <text x="160" y="170" text-anchor="middle" fill="#666" font-size="9" font-style="italic">Global settings, element tabs, overlays, and actions below</text>
</svg>
