<svg xmlns="http://www.w3.org/2000/svg" width="340" height="390" font-family="Segoe UI, Arial, sans-serif" font-size="11">
  <defs>
    <linearGradient id="panelBg2" x1="0" y1="0" x2="0" y2="1">
      <stop offset="0%" stop-color="#3a3a3a"/>
      <stop offset="100%" stop-color="#2b2b2b"/>
    </linearGradient>
  </defs>
  <!-- Panel background -->
  <rect width="340" height="390" rx="4" fill="url(#panelBg2)" stroke="#555" stroke-width="1"/>
  <!-- Section label -->
  <text x="170" y="20" text-anchor="middle" fill="#999" font-size="9" font-weight="bold" letter-spacing="1">PER-ELEMENT CONTROLS</text>
  <!-- Tab bar -->
  <rect x="12" y="30" width="316" height="354" rx="3" fill="#2a2a2a" stroke="#555" stroke-width="0.5"/>
  <!-- Tab buttons -->
  <rect x="14" y="32" width="56" height="22" rx="2" fill="#3a3a3a" stroke="#666" stroke-width="0.5"/>
  <text x="42" y="47" text-anchor="middle" fill="#4a9eff" font-size="10" font-weight="bold">Dialog</text>
  <rect x="72" y="32" width="50" height="22" rx="2" fill="#333"/>
  <text x="97" y="47" text-anchor="middle" fill="#999" font-size="10">BSOD</text>
  <rect x="124" y="32" width="42" height="22" rx="2" fill="#333"/>
  <text x="145" y="47" text-anchor="middle" fill="#999" font-size="10">Text</text>
  <rect x="168" y="32" width="52" height="22" rx="2" fill="#333"/>
  <text x="194" y="47" text-anchor="middle" fill="#999" font-size="10">Cursor</text>
  <rect x="222" y="32" width="44" height="22" rx="2" fill="#333"/>
  <text x="244" y="47" text-anchor="middle" fill="#999" font-size="10">Pixel</text>
  <!-- Active tab underline -->
  <rect x="14" y="53" width="56" height="2" fill="#4a9eff"/>
  <!-- Tab content area -->
  <rect x="16" y="58" width="308" height="320" rx="2" fill="#323232" stroke="#444" stroke-width="0.5"/>
  <!-- Row 1: Count -->
  <text x="28" y="82" fill="#b0b0b0" font-size="10">Count</text>
  <rect x="72" y="68" width="40" height="19" rx="2" fill="#1e1e1e" stroke="#555" stroke-width="0.5"/>
  <text x="80" y="82" fill="#e0e0e0" font-size="11">0</text>
  <text x="118" y="82" fill="#777" font-size="9">(0 = auto from chaos)</text>
  <!-- Row 2: Min/Max frames -->
  <text x="28" y="114" fill="#b0b0b0" font-size="10">Min f</text>
  <rect x="62" y="100" width="40" height="19" rx="2" fill="#1e1e1e" stroke="#555" stroke-width="0.5"/>
  <text x="70" y="114" fill="#e0e0e0" font-size="11">8</text>
  <text x="112" y="114" fill="#b0b0b0" font-size="10">Max f</text>
  <rect x="148" y="100" width="40" height="19" rx="2" fill="#1e1e1e" stroke="#555" stroke-width="0.5"/>
  <text x="156" y="114" fill="#e0e0e0" font-size="11">96</text>
  <!-- Row 3: Scale / Speed -->
  <text x="28" y="146" fill="#b0b0b0" font-size="10">Scale%</text>
  <rect x="74" y="132" width="40" height="19" rx="2" fill="#1e1e1e" stroke="#555" stroke-width="0.5"/>
  <text x="82" y="146" fill="#e0e0e0" font-size="11">100</text>
  <text x="124" y="146" fill="#b0b0b0" font-size="10">Spd%</text>
  <rect x="162" y="132" width="40" height="19" rx="2" fill="#1e1e1e" stroke="#555" stroke-width="0.5"/>
  <text x="170" y="146" fill="#e0e0e0" font-size="11">100</text>
  <!-- Row 4: Opacity -->
  <text x="28" y="178" fill="#b0b0b0" font-size="10">Opac</text>
  <rect x="62" y="164" width="36" height="19" rx="2" fill="#1e1e1e" stroke="#555" stroke-width="0.5"/>
  <text x="70" y="178" fill="#e0e0e0" font-size="11">50</text>
  <text x="104" y="178" fill="#777" font-size="11">-</text>
  <rect x="114" y="164" width="36" height="19" rx="2" fill="#1e1e1e" stroke="#555" stroke-width="0.5"/>
  <text x="119" y="178" fill="#e0e0e0" font-size="11">100</text>
  <!-- Row 5: Entry / Exit -->
  <text x="28" y="210" fill="#b0b0b0" font-size="10">Entry</text>
  <rect x="62" y="196" width="32" height="19" rx="2" fill="#1e1e1e" stroke="#555" stroke-width="0.5"/>
  <text x="72" y="210" fill="#e0e0e0" font-size="11">3</text>
  <text x="102" y="210" fill="#b0b0b0" font-size="10">Exit</text>
  <rect x="130" y="196" width="32" height="19" rx="2" fill="#1e1e1e" stroke="#555" stroke-width="0.5"/>
  <text x="140" y="210" fill="#e0e0e0" font-size="11">2</text>
  <!-- Divider -->
  <line x1="28" y1="222" x2="308" y2="222" stroke="#555" stroke-width="0.5" stroke-dasharray="4,3"/>
  <!-- Row 6: Override Trails (checkbox unchecked) -->
  <rect x="28" y="230" width="10" height="10" rx="1" fill="none" stroke="#888" stroke-width="1"/>
  <text x="44" y="240" fill="#999" font-size="10">Override Trails</text>
  <text x="148" y="240" fill="#666" font-size="9" font-style="italic">Ch% Ech Dc%</text>
  <!-- Row 7: Override Roto (checkbox unchecked) -->
  <rect x="28" y="250" width="10" height="10" rx="1" fill="none" stroke="#888" stroke-width="1"/>
  <text x="44" y="260" fill="#999" font-size="10">Override Roto</text>
  <text x="148" y="260" fill="#666" font-size="9" font-style="italic">[Over/Under]</text>
  <!-- Row 8: Override Curve (checkbox unchecked) -->
  <rect x="28" y="270" width="10" height="10" rx="1" fill="none" stroke="#888" stroke-width="1"/>
  <text x="44" y="280" fill="#999" font-size="10">Override Curve</text>
  <text x="148" y="280" fill="#666" font-size="9" font-style="italic">[Flat/Build/...]</text>
  <!-- Row 9: Custom Messages (checkbox unchecked, dialog/bsod only) -->
  <rect x="28" y="290" width="10" height="10" rx="1" fill="none" stroke="#888" stroke-width="1"/>
  <text x="44" y="300" fill="#999" font-size="10">Custom Messages</text>
  <rect x="155" y="289" width="50" height="16" rx="2" fill="#3a3a3a" stroke="#666" stroke-width="0.5"/>
  <text x="168" y="301" fill="#aaa" font-size="9">Edit...</text>
  <text x="218" y="301" fill="#555" font-size="8" font-style="italic">(dialog/bsod)</text>
  <!-- Global stack below tabs -->
  <text x="28" y="348" fill="#b0b0b0" font-size="10">Stack</text>
  <rect x="60" y="334" width="32" height="19" rx="2" fill="#1e1e1e" stroke="#555" stroke-width="0.5"/>
  <text x="68" y="348" fill="#e0e0e0" font-size="11">8</text>
  <text x="102" y="348" fill="#b0b0b0" font-size="10">Offset</text>
  <rect x="140" y="334" width="32" height="19" rx="2" fill="#1e1e1e" stroke="#555" stroke-width="0.5"/>
  <text x="148" y="348" fill="#e0e0e0" font-size="11">10</text>
  <text x="182" y="348" fill="#666" font-size="9" font-style="italic">(global)</text>
</svg>
